<mxfile host="app.diagrams.net" modified="2024-07-23T02:09:10.116Z" agent="Mozilla/5.0 (Windows NT 10.0; Win64; x64) AppleWebKit/537.36 (KHTML, like Gecko) Chrome/126.0.0.0 Safari/537.36" version="24.5.2" etag="QRyv7zFm-I6L1hC3T8F5" type="github">
  <diagram name="Page-1" id="ypFpSjnY-nM-vC0Ch0rk">
    <mxGraphModel>
      <root>
        <mxCell id="0" />
        <mxCell id="1" parent="0" />
      </root>
    </mxGraphModel>
  </diagram>
</mxfile>
